<mxfile host="app.diagrams.net" modified="2023-12-07T13:54:40.307Z" agent="Mozilla/5.0 (X11; Linux x86_64) AppleWebKit/537.36 (KHTML, like Gecko) Chrome/117.0.0.0 Safari/537.36" etag="-ydjmAEfzyGVenSEQrSH" version="21.8.0" type="device">
  <diagram name="Сторінка-1" id="_FPC5Uxy1iZVQ9li25Ui">
    <mxGraphModel dx="1362" dy="803" grid="1" gridSize="10" guides="1" tooltips="1" connect="1" arrows="1" fold="1" page="1" pageScale="1" pageWidth="827" pageHeight="1169" math="0" shadow="0">
      <root>
        <mxCell id="0" />
        <mxCell id="1" parent="0" />
        <mxCell id="0oIC0nIns8aCTjGho4vX-1" value="" style="shape=cube;whiteSpace=wrap;html=1;boundedLbl=1;backgroundOutline=1;darkOpacity=0.05;darkOpacity2=0.1;labelBackgroundColor=none;fillColor=#FAE5C7;strokeColor=#0F8B8D;fontColor=#143642;" parent="1" vertex="1">
          <mxGeometry x="120" y="80" width="170" height="200" as="geometry" />
        </mxCell>
        <mxCell id="0oIC0nIns8aCTjGho4vX-2" value="&lt;p style=&quot;margin: 0.0px 0.0px 0.0px 0.0px; font: 12.0px Helvetica&quot;&gt;&lt;br&gt;&lt;/p&gt;" style="shape=cube;whiteSpace=wrap;html=1;boundedLbl=1;backgroundOutline=1;darkOpacity=0.05;darkOpacity2=0.1;labelBackgroundColor=none;fillColor=#FAE5C7;strokeColor=#0F8B8D;fontColor=#143642;" parent="1" vertex="1">
          <mxGeometry x="520" y="160" width="210" height="260" as="geometry" />
        </mxCell>
        <mxCell id="0oIC0nIns8aCTjGho4vX-3" value="Client. exe&lt;br style=&quot;border-color: var(--border-color); caret-color: rgb(0, 0, 0); color: rgb(0, 0, 0);&quot;&gt;&lt;br style=&quot;border-color: var(--border-color); caret-color: rgb(0, 0, 0); color: rgb(0, 0, 0);&quot;&gt;&lt;span style=&quot;border-color: var(--border-color); caret-color: rgb(0, 0, 0); color: rgb(0, 0, 0);&quot;&gt;Form.cs&lt;/span&gt;&lt;br style=&quot;border-color: var(--border-color); caret-color: rgb(0, 0, 0); color: rgb(0, 0, 0);&quot;&gt;&lt;span style=&quot;border-color: var(--border-color); caret-color: rgb(0, 0, 0); color: rgb(0, 0, 0);&quot;&gt;Database.cs&lt;/span&gt;&lt;br style=&quot;border-color: var(--border-color); caret-color: rgb(0, 0, 0); color: rgb(0, 0, 0);&quot;&gt;&lt;span style=&quot;border-color: var(--border-color); caret-color: rgb(0, 0, 0); color: rgb(0, 0, 0);&quot;&gt;Table.cs&lt;/span&gt;&lt;br style=&quot;border-color: var(--border-color); caret-color: rgb(0, 0, 0); color: rgb(0, 0, 0);&quot;&gt;&lt;span style=&quot;border-color: var(--border-color); caret-color: rgb(0, 0, 0); color: rgb(0, 0, 0);&quot;&gt;Column.cs&lt;/span&gt;&lt;br style=&quot;border-color: var(--border-color); caret-color: rgb(0, 0, 0); color: rgb(0, 0, 0);&quot;&gt;&lt;span style=&quot;border-color: var(--border-color); caret-color: rgb(0, 0, 0); color: rgb(0, 0, 0);&quot;&gt;Row.cs&lt;/span&gt;" style="rounded=1;whiteSpace=wrap;html=1;rotation=0;labelBackgroundColor=none;fillColor=#FAE5C7;strokeColor=#0F8B8D;fontColor=#143642;" parent="1" vertex="1">
          <mxGeometry x="160" y="130" width="115" height="130" as="geometry" />
        </mxCell>
        <mxCell id="0oIC0nIns8aCTjGho4vX-4" value="&lt;p style=&quot;margin: 0.0px 0.0px 0.0px 0.0px; font: 12.0px Helvetica&quot;&gt;Client&lt;/p&gt;" style="text;whiteSpace=wrap;html=1;fontStyle=4;labelBackgroundColor=none;fontColor=#143642;" parent="1" vertex="1">
          <mxGeometry x="150" y="100" width="60" height="40" as="geometry" />
        </mxCell>
        <mxCell id="0oIC0nIns8aCTjGho4vX-5" value="&lt;span style=&quot;caret-color: rgb(0, 0, 0); color: rgb(0, 0, 0); font-family: Helvetica; font-size: 12px; font-style: normal; font-variant-caps: normal; font-weight: 400; letter-spacing: normal; text-align: left; text-indent: 0px; text-transform: none; word-spacing: 0px; -webkit-text-stroke-width: 0px; background-color: rgb(251, 251, 251); text-decoration: none; float: none; display: inline !important;&quot;&gt;NET remoting&lt;/span&gt;" style="edgeStyle=elbowEdgeStyle;elbow=horizontal;endArrow=classic;html=1;curved=0;rounded=0;endSize=8;startSize=8;entryX=1.008;entryY=0.625;entryDx=0;entryDy=0;entryPerimeter=0;exitX=0.001;exitY=0.303;exitDx=0;exitDy=0;exitPerimeter=0;labelBackgroundColor=none;strokeColor=#A8201A;fontColor=default;" parent="1" source="0oIC0nIns8aCTjGho4vX-2" target="0oIC0nIns8aCTjGho4vX-1" edge="1">
          <mxGeometry width="50" height="50" relative="1" as="geometry">
            <mxPoint x="340" y="340" as="sourcePoint" />
            <mxPoint x="430" y="170" as="targetPoint" />
          </mxGeometry>
        </mxCell>
        <mxCell id="0oIC0nIns8aCTjGho4vX-6" value="&lt;p style=&quot;margin: 0.0px 0.0px 0.0px 0.0px; font: 12.0px Helvetica&quot;&gt;&lt;br&gt;&lt;/p&gt;" style="text;whiteSpace=wrap;html=1;labelBackgroundColor=none;fontColor=#143642;" parent="1" vertex="1">
          <mxGeometry x="350" y="270" width="90" height="40" as="geometry" />
        </mxCell>
        <mxCell id="0oIC0nIns8aCTjGho4vX-7" value="&lt;span style=&quot;caret-color: rgb(0, 0, 0); color: rgb(0, 0, 0); font-family: Helvetica; font-size: 12px; font-style: normal; font-variant-caps: normal; font-weight: 400; letter-spacing: normal; text-align: center; text-indent: 0px; text-transform: none; word-spacing: 0px; -webkit-text-stroke-width: 0px; float: none; display: inline !important; background-color: rgb(255, 230, 204);&quot;&gt;Server&lt;/span&gt;" style="text;whiteSpace=wrap;html=1;fontStyle=4;labelBackgroundColor=none;fontColor=#143642;" parent="1" vertex="1">
          <mxGeometry x="550" y="180" width="40" height="20" as="geometry" />
        </mxCell>
        <mxCell id="0oIC0nIns8aCTjGho4vX-8" value="&lt;p style=&quot;margin: 0px; font-stretch: normal; line-height: 190%; font-size: 12px;&quot;&gt;&lt;font style=&quot;font-size: 12px;&quot;&gt;Server.exe&lt;/font&gt;&lt;/p&gt;&lt;p style=&quot;margin: 0px; font-stretch: normal; line-height: 190%; font-size: 12px;&quot;&gt;&lt;font style=&quot;font-size: 12px;&quot;&gt;&lt;br&gt;&lt;/font&gt;&lt;/p&gt;&lt;p style=&quot;margin: 0px; font-stretch: normal; line-height: 10%; font-size: 12px;&quot;&gt;&lt;font style=&quot;font-size: 12px;&quot;&gt;&lt;br&gt;&lt;/font&gt;&lt;/p&gt;&lt;p style=&quot;margin: 0px; font-stretch: normal; line-height: 10%; font-size: 12px;&quot;&gt;&lt;font style=&quot;font-size: 12px;&quot;&gt;Program.c&lt;/font&gt;s&lt;/p&gt;&lt;font style=&quot;font-size: 12px;&quot;&gt;&lt;br&gt;&lt;/font&gt;&lt;p style=&quot;margin: 0px; font-stretch: normal; line-height: 10%; font-size: 12px;&quot;&gt;&lt;font style=&quot;font-size: 12px;&quot;&gt;DatabaseManager.cs&lt;/font&gt;&lt;/p&gt;&lt;font style=&quot;font-size: 12px;&quot;&gt;&lt;br&gt;&lt;/font&gt;&lt;p style=&quot;margin: 0px; font-stretch: normal; line-height: 10%; font-size: 12px;&quot;&gt;&lt;font style=&quot;font-size: 12px;&quot;&gt;Database.cs&lt;/font&gt;&lt;/p&gt;&lt;font style=&quot;font-size: 12px;&quot;&gt;&lt;br&gt;&lt;/font&gt;&lt;p style=&quot;margin: 0px; font-stretch: normal; line-height: 10%; font-size: 12px;&quot;&gt;&lt;font style=&quot;font-size: 12px;&quot;&gt;Table.cs&lt;/font&gt;&lt;/p&gt;&lt;font style=&quot;font-size: 12px;&quot;&gt;&lt;br&gt;&lt;/font&gt;&lt;p style=&quot;margin: 0px; font-stretch: normal; line-height: 10%; font-size: 12px;&quot;&gt;&lt;font style=&quot;font-size: 12px;&quot;&gt;Column.cs&lt;/font&gt;&lt;/p&gt;&lt;font style=&quot;font-size: 12px;&quot;&gt;&lt;br&gt;&lt;/font&gt;&lt;p style=&quot;margin: 0px; font-stretch: normal; line-height: 10%; font-size: 12px;&quot;&gt;&lt;font style=&quot;font-size: 12px;&quot;&gt;Row.cs&lt;/font&gt;&lt;/p&gt;&lt;p style=&quot;margin: 0px; font-stretch: normal; line-height: 10%; font-size: 12px;&quot;&gt;&lt;br&gt;&lt;/p&gt;&lt;font style=&quot;font-size: 12px;&quot;&gt;&lt;br&gt;&lt;/font&gt;&lt;p style=&quot;margin: 0px; font-stretch: normal; line-height: 10%; font-size: 12px;&quot;&gt;&lt;font style=&quot;font-size: 12px;&quot;&gt;IDbReader.cs&lt;/font&gt;&lt;/p&gt;&lt;font style=&quot;font-size: 12px;&quot;&gt;&lt;br&gt;&lt;/font&gt;&lt;p style=&quot;margin: 0px; font-stretch: normal; line-height: 10%; font-size: 12px;&quot;&gt;&lt;/p&gt;&lt;div style=&quot;line-height: 10%;&quot;&gt;&lt;font style=&quot;font-size: 12px;&quot;&gt;IDbWriter.cs&lt;/font&gt;&lt;/div&gt;&lt;font style=&quot;font-size: 12px;&quot;&gt;&lt;br&gt;&lt;/font&gt;&lt;p style=&quot;margin: 0px; font-stretch: normal; line-height: 10%; font-size: 12px;&quot;&gt;&lt;font style=&quot;font-size: 12px;&quot;&gt;IDbSearcher.cs&lt;/font&gt;&lt;/p&gt;" style="rounded=1;whiteSpace=wrap;html=1;fontSize=10;verticalAlign=middle;align=center;labelBackgroundColor=none;fillColor=#FAE5C7;strokeColor=#0F8B8D;fontColor=#143642;" parent="1" vertex="1">
          <mxGeometry x="560" y="210" width="160" height="200" as="geometry" />
        </mxCell>
      </root>
    </mxGraphModel>
  </diagram>
</mxfile>
